<svg width="561" height="900" viewBox="0 0 561 900" fill="none" xmlns="http://www.w3.org/2000/svg">
<mask id="mask0" mask-type="alpha" maskUnits="userSpaceOnUse" x="0" y="0" width="561" height="900">
<rect width="561" height="900" fill="#C4C4C4"/>
</mask>
<g mask="url(#mask0)">
<mask id="mask1" mask-type="alpha" maskUnits="userSpaceOnUse" x="0" y="0" width="1440" height="900">
<rect width="1440" height="900" fill="#303B74"/>
</mask>
<g mask="url(#mask1)">
<rect x="-82" y="-60" width="1907" height="1235" fill="#487FC0"/>
<path d="M263 9L237 19L249 25L229 28V34L257 46L276.5 36L301 41L316 36L303 28L315 9H301L292.5 20.5L290 9L278 16L263 9Z" fill="#5E92CF" stroke="#0A478F" stroke-width="3"/>
<path d="M326.5 46.5L321 37.5L336 31.5L340 37.5L326.5 46.5Z" fill="#5E92CF"/>
<path d="M340 23.5L332.5 14.5L364 4.5L358 19L340 23.5Z" fill="#5E92CF"/>
<path d="M326.5 46.5L321 37.5L336 31.5L340 37.5L326.5 46.5Z" stroke="#0A478F" stroke-width="3"/>
<path d="M340 23.5L332.5 14.5L364 4.5L358 19L340 23.5Z" stroke="#0A478F" stroke-width="3"/>
<path d="M370 19L366.5 9.5L389.5 4L395 12.5L370 19Z" fill="#5E92CF" stroke="#0A478F" stroke-width="3"/>
<path d="M362.5 79.5L377 66.5L393.5 77L391.5 82.5L362.5 79.5Z" fill="#5E92CF" stroke="#0A478F" stroke-width="3"/>
<path d="M413 5L388.5 31.5L442 29L474.5 57.5H452.5L442 67L414.5 66L413 76H442.5L466.5 92.5L470.5 89L465 79L479 89L485 86.5V62.5L505 68L514.5 62.5L507.5 50.5L497 46.5V29L442.5 8L433 6.5L414.5 21.5L423 6.5L413 5Z" fill="#5E92CF" stroke="#0A478F" stroke-width="3"/>
<path d="M3 107H-11L-14.5 26.5H71.5L87.5 34L200.5 31L256.5 56L279.5 44.5L327 52.5L350 40.5L345 31L365.5 22.5L368 36.5L379 38L377 52.5L394.5 38H418L400 59L354 63L360 74.5L331 78L279.5 116L331 143V172.5H344L404 84.5H428.5L443 100V119L477 105.5L481 146L506 153V162L467.5 182.5H426L395.5 196.5V203.5L426 190.5L430.5 196.5L419.5 209.5L427.5 218.5L449 221L405.5 236L403 230.5L415.5 223L388.5 229L258.5 339.5V390.5H246L239 349.5H161.5L113.5 407.5L129.5 444.5H165L174.5 423H195V441.5L180 468.5H218.5L219.5 521.5L233 526.5L236 521.5H258L260 527.5L268.5 526.5L286 505.5H336L352.5 517.5L383.5 520L415.5 553H449.5L469 592L457.5 607.5L472.5 596.5L484.5 603.5L478 615.5L498 607.5L515 615.5V626.5H552L591.5 655V673.5L566.5 704.5L557.5 781L501 806.5L497.5 838.5L458.5 902L433.5 891.5L447 913L332.5 922L324 764.5L281 736.5L229 647.5L232 608L255.5 581.5L259 555L253 532.5H242.5L238 541L211.5 532.5L184 495.5L147 478.5L135.5 467L123 472L63.5 445L27 363.5V342H19V363.5L38 403.5L27 411.5L-1 366.5L-22.5 250.5L32 193.5V183.5L18 172.5L27 131L3 107Z" fill="#5E92CF" stroke="#0A478F" stroke-width="3"/>
<path d="M27 187L16 178L9.5 182L18.5 195H25.5L27 187Z" fill="#5E92CF" stroke="#0A478F" stroke-width="3"/>
<path d="M207.5 24L197.5 12.5L243.5 1L253.5 5L207.5 24Z" fill="#5E92CF" stroke="#0A478F" stroke-width="3"/>
<path d="M245.5 204.5L279 197.5L284.5 210.5L293.5 219.5H304.5L308 229.5L299.5 231L292 239H284.5L286 222.5L269.5 226.5L250.5 253.5H240L260.5 222.5L282.5 218L284.5 210.5L266 213.5L262 209H252L249 213.5H240L245.5 204.5Z" fill="#255FA4"/>
<path d="M290.5 246L281 253.5L293.5 254.5L305.5 246H290.5Z" fill="#255FA4"/>
<path d="M284.5 210.5L279 197.5L245.5 204.5L240 213.5H249L252 209H262L266 213.5L284.5 210.5ZM284.5 210.5L293.5 219.5H304.5L308 229.5L299.5 231L292 239H284.5L286 222.5M284.5 210.5L282.5 218M286 222.5L282.5 218M286 222.5L269.5 226.5L250.5 253.5H240L260.5 222.5L282.5 218M281 253.5L290.5 246H305.5L293.5 254.5L281 253.5Z" stroke="#0A478F" stroke-width="3"/>
<path d="M490.5 176L468.5 203L511 206L501.5 186.5L492.5 184L490.5 176Z" fill="#5E92CF" stroke="#0A478F" stroke-width="3"/>
<path d="M232 405.5L223.5 415.5H247L263 427.5L256 437.5L293 434.5L256 405.5H232Z" fill="#5E92CF" stroke="#0A478F" stroke-width="3"/>
<path d="M261.5 457L255.5 446.5L270.5 442.5L277 446.5V457H261.5Z" fill="#5E92CF" stroke="#0A478F" stroke-width="3"/>
<path d="M298.5 443.5H291.5V448.5H308L306.5 451H311.5L315 445.5L330 448.5L334 439.5L297 437L298.5 443.5Z" fill="#5E92CF" stroke="#0A478F" stroke-width="3"/>
<path d="M341.5 452.5L344 443.5L353 446.5L350.5 452.5H341.5Z" fill="#5E92CF" stroke="#0A478F" stroke-width="3"/>
<path d="M91.5 32.5L13.5 99.5L22 111H30L39 121L27.5 132" stroke="#0A478F" stroke-width="1.5"/>
<path d="M314.5 439.5V445.5" stroke="#0A478F" stroke-width="1.5"/>
<path d="M37 193H222L246 206" stroke="#0A478F" stroke-width="1.5"/>
<path d="M308.5 229.5L328.5 231.5L338.5 224H371L386 210.5H400.5L395.5 227.5" stroke="#0A478F" stroke-width="1.5"/>
<path d="M-3 329L75 338.5L87.5 355.5H108L128 391" stroke="#0A478F" stroke-width="1.5"/>
<path d="M194.5 441.5L179.5 452H168V467.5H155.5L149 478" stroke="#0A478F" stroke-width="1.5"/>
<path d="M179.5 452L182.5 465.5" stroke="#0A478F" stroke-width="1.5"/>
<path d="M167 488L181 466.5" stroke="#0A478F" stroke-width="1.5"/>
<path d="M172.5 479.5L184.5 485.5V495" stroke="#0A478F" stroke-width="1.5"/>
<path d="M218 468.5L185.5 497.5" stroke="#0A478F" stroke-width="1.5"/>
<path d="M197.5 512.5L219.5 514" stroke="#0A478F" stroke-width="1.5"/>
<path d="M223.5 523L218 533" stroke="#0A478F" stroke-width="1.5"/>
<path d="M261 528.5V540L256.5 543.5" stroke="#0A478F" stroke-width="1.5"/>
<path d="M294 506L296.5 534.5L310 547.5L333.5 548.5V584L317.5 585V640L296 641L288 671.5L322 702L355 693.5L417 750L418.5 789L453.5 808.5L455.5 832.5L433 854.5L431.5 890" stroke="#0A478F" stroke-width="1.5"/>
<path d="M433.5 854.5L472 881.5" stroke="#0A478F" stroke-width="1.5"/>
<path d="M454.5 820.5L443 829H421.5V812.5L382.5 787" stroke="#0A478F" stroke-width="1.5"/>
<path d="M417 767.5H393.5L381 790H348.5L331 754.5L325.5 764.5" stroke="#0A478F" stroke-width="1.5"/>
<path d="M331 754.5V699.5" stroke="#0A478F" stroke-width="1.5"/>
<path d="M348.5 789.5L340 874L348.5 904" stroke="#0A478F" stroke-width="1.5"/>
<path d="M248 590L317.5 630.5" stroke="#0A478F" stroke-width="1.5"/>
<path d="M279 608L248.5 644.5L230 637.5" stroke="#0A478F" stroke-width="1.5"/>
<path d="M333.5 584H339L345 597L361.5 591L360.5 571L394 560L392 589L452.5 582.5L457 567.5" stroke="#0A478F" stroke-width="1.5"/>
<path d="M438 555L436.5 584" stroke="#0A478F" stroke-width="1.5"/>
<path d="M415.5 586.5L407.5 565.5L415.5 552" stroke="#0A478F" stroke-width="1.5"/>
<path d="M391.5 528L384 563" stroke="#0A478F" stroke-width="1.5"/>
</g>
</g>
</svg>
