<svg width="1440" height="900" viewBox="0 0 1440 900" fill="none" xmlns="http://www.w3.org/2000/svg">
<mask id="mask0" mask-type="alpha" maskUnits="userSpaceOnUse" x="0" y="0" width="1440" height="900">
<rect width="1440" height="900" fill="#303B74"/>
</mask>
<g mask="url(#mask0)">
<rect x="-82" y="-60" width="1907" height="1235" fill="#384668"/>
<path d="M263 9L237 19L249 25L229 28V34L257 46L276.5 36L301 41L316 36L303 28L315 9H301L292.5 20.5L290 9L278 16L263 9Z" fill="#415176" stroke="#1D2B4F" stroke-width="3"/>
<path d="M326.5 46.5L321 37.5L336 31.5L340 37.5L326.5 46.5Z" fill="#415176"/>
<path d="M340 23.5L332.5 14.5L364 4.5L358 19L340 23.5Z" fill="#415176"/>
<path d="M326.5 46.5L321 37.5L336 31.5L340 37.5L326.5 46.5Z" stroke="#1D2B4F" stroke-width="3"/>
<path d="M340 23.5L332.5 14.5L364 4.5L358 19L340 23.5Z" stroke="#1D2B4F" stroke-width="3"/>
<path d="M370 19L366.5 9.5L389.5 4L395 12.5L370 19Z" fill="#415176" stroke="#1D2B4F" stroke-width="3"/>
<path d="M362.5 79.5L377 66.5L393.5 77L391.5 82.5L362.5 79.5Z" fill="#415176" stroke="#1D2B4F" stroke-width="3"/>
<path d="M413 5L388.5 31.5L442 29L474.5 57.5H452.5L442 67L414.5 66L413 76H442.5L466.5 92.5L470.5 89L465 79L479 89L485 86.5V62.5L505 68L514.5 62.5L507.5 50.5L497 46.5V29L442.5 8L433 6.5L414.5 21.5L423 6.5L413 5Z" fill="#415176" stroke="#1D2B4F" stroke-width="3"/>
<path d="M3 107H-11L-14.5 26.5H71.5L87.5 34L200.5 31L256.5 56L279.5 44.5L327 52.5L350 40.5L345 31L365.5 22.5L368 36.5L379 38L377 52.5L394.5 38H418L400 59L354 63L360 74.5L331 78L279.5 116L331 143V172.5H344L404 84.5H428.5L443 100V119L477 105.5L481 146L506 153V162L467.5 182.5H426L395.5 196.5V203.5L426 190.5L430.5 196.5L419.5 209.5L427.5 218.5L449 221L405.5 236L403 230.5L415.5 223L388.5 229L258.5 339.5V390.5H246L239 349.5H161.5L113.5 407.5L129.5 444.5H165L174.5 423H195V441.5L180 468.5H218.5L219.5 521.5L233 526.5L236 521.5H258L260 527.5L268.5 526.5L286 505.5H336L352.5 517.5L383.5 520L415.5 553H449.5L469 592L457.5 607.5L472.5 596.5L484.5 603.5L478 615.5L498 607.5L515 615.5V626.5H552L591.5 655V673.5L566.5 704.5L557.5 781L501 806.5L497.5 838.5L458.5 902L433.5 891.5L447 913L332.5 922L324 764.5L281 736.5L229 647.5L232 608L255.5 581.5L259 555L253 532.5H242.5L238 541L211.5 532.5L184 495.5L147 478.5L135.5 467L123 472L63.5 445L27 363.5V342H19V363.5L38 403.5L27 411.5L-1 366.5L-22.5 250.5L32 193.5V183.5L18 172.5L27 131L3 107Z" fill="#415176" stroke="#1D2B4F" stroke-width="3"/>
<path d="M27 187L16 178L9.5 182L18.5 195H25.5L27 187Z" fill="#415176" stroke="#1D2B4F" stroke-width="3"/>
<path d="M207.5 24L197.5 12.5L243.5 1L253.5 5L207.5 24Z" fill="#415176" stroke="#1D2B4F" stroke-width="3"/>
<path d="M245.5 204.5L279 197.5L284.5 210.5L293.5 219.5H304.5L308 229.5L299.5 231L292 239H284.5L286 222.5L269.5 226.5L250.5 253.5H240L260.5 222.5L282.5 218L284.5 210.5L266 213.5L262 209H252L249 213.5H240L245.5 204.5Z" fill="#384668"/>
<path d="M290.5 246L281 253.5L293.5 254.5L305.5 246H290.5Z" fill="#384668"/>
<path d="M284.5 210.5L279 197.5L245.5 204.5L240 213.5H249L252 209H262L266 213.5L284.5 210.5ZM284.5 210.5L293.5 219.5H304.5L308 229.5L299.5 231L292 239H284.5L286 222.5M284.5 210.5L282.5 218M286 222.5L282.5 218M286 222.5L269.5 226.5L250.5 253.5H240L260.5 222.5L282.5 218M281 253.5L290.5 246H305.5L293.5 254.5L281 253.5Z" stroke="#1D2B4F" stroke-width="3"/>
<path d="M490.5 176L468.5 203L511 206L501.5 186.5L492.5 184L490.5 176Z" fill="#415176" stroke="#1D2B4F" stroke-width="3"/>
<path d="M232 405.5L223.5 415.5H247L263 427.5L256 437.5L293 434.5L256 405.5H232Z" fill="#415176" stroke="#1D2B4F" stroke-width="3"/>
<path d="M261.5 457L255.5 446.5L270.5 442.5L277 446.5V457H261.5Z" fill="#415176" stroke="#1D2B4F" stroke-width="3"/>
<path d="M298.5 443.5H291.5V448.5H308L306.5 451H311.5L315 445.5L330 448.5L334 439.5L297 437L298.5 443.5Z" fill="#415176" stroke="#1D2B4F" stroke-width="3"/>
<path d="M341.5 452.5L344 443.5L353 446.5L350.5 452.5H341.5Z" fill="#415176" stroke="#1D2B4F" stroke-width="3"/>
<path d="M91.5 32.5L13.5 99.5L22 111H30L39 121L27.5 132" stroke="#1D2B4F" stroke-width="1.5"/>
<path d="M314.5 439.5V445.5" stroke="#1D2B4F" stroke-width="1.5"/>
<path d="M37 193H222L246 206" stroke="#1D2B4F" stroke-width="1.5"/>
<path d="M308.5 229.5L328.5 231.5L338.5 224H371L386 210.5H400.5L395.5 227.5" stroke="#1D2B4F" stroke-width="1.5"/>
<path d="M-3 329L75 338.5L87.5 355.5H108L128 391" stroke="#1D2B4F" stroke-width="1.5"/>
<path d="M194.5 441.5L179.5 452H168V467.5H155.5L149 478" stroke="#1D2B4F" stroke-width="1.5"/>
<path d="M179.5 452L182.5 465.5" stroke="#1D2B4F" stroke-width="1.5"/>
<path d="M167 488L181 466.5" stroke="#1D2B4F" stroke-width="1.5"/>
<path d="M172.5 479.5L184.5 485.5V495" stroke="#1D2B4F" stroke-width="1.5"/>
<path d="M218 468.5L185.5 497.5" stroke="#1D2B4F" stroke-width="1.5"/>
<path d="M197.5 512.5L219.5 514" stroke="#1D2B4F" stroke-width="1.5"/>
<path d="M223.5 523L218 533" stroke="#1D2B4F" stroke-width="1.5"/>
<path d="M261 528.5V540L256.5 543.5" stroke="#1D2B4F" stroke-width="1.5"/>
<path d="M294 506L296.5 534.5L310 547.5L333.5 548.5V584L317.5 585V640L296 641L288 671.5L322 702L355 693.5L417 750L418.5 789L453.5 808.5L455.5 832.5L433 854.5L431.5 890" stroke="#1D2B4F" stroke-width="1.5"/>
<path d="M433.5 854.5L472 881.5" stroke="#1D2B4F" stroke-width="1.5"/>
<path d="M454.5 820.5L443 829H421.5V812.5L382.5 787" stroke="#1D2B4F" stroke-width="1.5"/>
<path d="M417 767.5H393.5L381 790H348.5L331 754.5L325.5 764.5" stroke="#1D2B4F" stroke-width="1.5"/>
<path d="M331 754.5V699.5" stroke="#1D2B4F" stroke-width="1.5"/>
<path d="M348.5 789.5L340 874L348.5 904" stroke="#1D2B4F" stroke-width="1.5"/>
<path d="M248 590L317.5 630.5" stroke="#1D2B4F" stroke-width="1.5"/>
<path d="M279 608L248.5 644.5L230 637.5" stroke="#1D2B4F" stroke-width="1.5"/>
<path d="M333.5 584H339L345 597L361.5 591L360.5 571L394 560L392 589L452.5 582.5L457 567.5" stroke="#1D2B4F" stroke-width="1.5"/>
<path d="M438 555L436.5 584" stroke="#1D2B4F" stroke-width="1.5"/>
<path d="M415.5 586.5L407.5 565.5L415.5 552" stroke="#1D2B4F" stroke-width="1.5"/>
<path d="M391.5 528L384 563" stroke="#1D2B4F" stroke-width="1.5"/>
<path d="M1220 208L1198 217.5L1195.5 242.5L1226 295.5H1247L1250.5 268.5L1215.5 240V223.5L1233 216L1220 208Z" fill="#384668" stroke="#202B50" stroke-width="3"/>
<path d="M730 412.5L807.5 311.5L848 308L886 292H940.5V321L969.5 329L980.5 344L1003.5 349L1013.5 329L1112.5 341.5L1121.5 300.5L1064.5 297.5L1050 268.5H1064.5L1074 259L1154.5 256.5V242.5L1125 232.5L1121.5 217.5L1130 213L1127 208L1102 213L1112.5 228H1098.5L1089 223.5L1095.5 217.5H1071L1059 249L1064.5 261L1038.5 263.5L1025.5 268.5L1031 286L1021.5 297.5L1013.5 282L1021.5 279.5L1008 276L999.5 265.5L996 249L982.5 247L962.5 228H948.5L992.5 268.5H984.5L982.5 282L973.5 286V268.5L933.5 228H923V245H888L848 297.5L808.5 295L798.5 279.5L801 238.5L855 236.5L853 213L835.5 203V193L848 197.5L923 151L918 141L925 124.5L938.5 128L935.5 148L960.5 151L984.5 144.5L990 148H1005.5L1008 122.5L1023.5 128V120.5L1013.5 116L1018.5 112H1038.5L1046 105.5H1018.5L1001.5 94L1018.5 61H1005.5L979 94L992.5 112L960.5 141L938.5 116L913 120.5L901.5 94L992.5 32L1052 28.5L1119 49.5L1099 61L1066.5 56.5L1077 78.5L1164.5 43L1257 40.5L1246 14H1272.5L1286 61L1299 45.5L1282 23L1335 -1.5L1469.5 -45.5L1453.5 548.5L1407 420.5H1402.5V430H1388.5L1382 416L1388.5 411L1374 408L1359 392.5H1310.5L1256 380L1231.5 351.5L1212 349L1237 390.5L1242.5 380L1251.5 392.5L1248 398.5L1265.5 403.5L1279 387L1310.5 416L1270.5 465L1193 500.5L1181 465L1121.5 355.5L1117.5 370.5L1101.5 355.5L1193 513L1251.5 505.5L1256 524L1159 635.5L1167 732.5L1127 768V807.5L1109 820V838L1055.5 895H997L945.5 737.5L958 714V659L929 617.5V567.5H901.5L896 552.5L875.5 550L793 574.5L726 503.5L730 412.5Z" fill="#415176" stroke="#202B50" stroke-width="3"/>
<path d="M836.5 143V121.5H849L865 160.5L877 161.5V171H870.5L869.5 179L834.5 187L830 184L846.5 173.5L840 167V158L846.5 154L844 143H836.5Z" fill="#415176" stroke="#202B50" stroke-width="3"/>
<path d="M832.5 154V143H815.5L801 152V175.5H813V169.5H829V154H832.5Z" fill="#415176" stroke="#202B50" stroke-width="3"/>
<path d="M1247 711L1233.5 709L1192.5 748.5V773L1183 795.5L1192.5 818H1213.5L1247 711Z" fill="#415176" stroke="#202B50" stroke-width="3"/>
<path d="M801.5 70.5L788.5 56.5L774 63H751.5L748.5 67.5H737.5V77L776.5 83.5L801.5 70.5Z" fill="#415176" stroke="#202B50" stroke-width="3"/>
<path d="M596.5 17L583.5 -3H775.5L748.5 40.5L695.5 46L681 59L639.5 69.5L609.5 102H587L570.5 84V52.5L596.5 37.5V17Z" fill="#415176" stroke="#202B50" stroke-width="3"/>
<path d="M875.5 273L886.5 264.5V278H877L875.5 273Z" fill="#415176" stroke="#202B50" stroke-width="3"/>
<path d="M919.5 278V255L930 258V278H919.5Z" fill="#415176" stroke="#202B50" stroke-width="3"/>
<path d="M926 255.5V244L934.5 242.5V253L926 255.5Z" fill="#415176" stroke="#202B50" stroke-width="3"/>
<path d="M951 283H968.5V294L951 288V283Z" fill="#415176" stroke="#202B50" stroke-width="3"/>
<path d="M970.5 300.5L968.5 312.5L955.5 307.5V300.5H970.5Z" fill="#415176" stroke="#202B50" stroke-width="3"/>
<path d="M1107.5 303.5L1093 311L1107.5 315.5V303.5Z" fill="#415176" stroke="#202B50" stroke-width="3"/>
<path d="M1111 341.5L1121.5 359" stroke="#1F2D51" stroke-width="1.5"/>
<path d="M1171 623V582L1222.5 537.5L1187.5 524.5L1171 507L1182.5 497" stroke="#1F2D51" stroke-width="1.5"/>
<path d="M1181 518L1189.5 509" stroke="#1F2D51" stroke-width="1.5"/>
<path d="M1177 502L1163.5 481.5H1132" stroke="#1F2D51" stroke-width="1.5"/>
<path d="M1150 442L1132.5 481.5L1109.5 535L1141.5 569.5H1186.5" stroke="#1F2D51" stroke-width="1.5"/>
<path d="M1136 563L1094 568.5L1079.5 638.5L1110 683V720L1063.5 751.5H946.5" stroke="#1F2D51" stroke-width="1.5"/>
<path d="M1109.5 682.5H1118.5V715L1129.5 724.5V738L1118.5 748V727.5L1109.5 719.5" stroke="#1F2D51" stroke-width="1.5"/>
<path d="M1119.5 701.5L1163 691.5" stroke="#1F2D51" stroke-width="1.5"/>
<path d="M1090.5 733.5L1109.5 745V764.5L1097.5 792.5V823H1106" stroke="#1F2D51" stroke-width="1.5"/>
<path d="M1097.5 792H1073.5L1047 751.5" stroke="#1F2D51" stroke-width="1.5"/>
<path d="M1052.5 761.5H1010V842H978" stroke="#1F2D51" stroke-width="1.5"/>
<path d="M1010 812L1023 826.5L1074.5 792" stroke="#1F2D51" stroke-width="1.5"/>
<path d="M1088.5 821.5H1096.5V836.5L1088.5 832V821.5Z" stroke="#1F2D51" stroke-width="1.5"/>
<path d="M1067.5 845H1077.5V855L1072.5 860.5H1061V851L1067.5 845Z" stroke="#1F2D51" stroke-width="1.5"/>
<path d="M959.5 658H983.5L989 671.5H1004.5L1009 658H1024.5V686.5L1084.5 715.5L1089.5 704L1074.5 697.5L1079.5 675.5L1103.5 671.5" stroke="#1F2D51" stroke-width="1.5"/>
<path d="M1038.5 693.5V715H1022V735L1038.5 752" stroke="#1F2D51" stroke-width="1.5"/>
<path d="M1094 569.5L1070.5 561.5L1025.5 511V481.5L1039.5 468.5L1045.5 334.5" stroke="#1F2D51" stroke-width="1.5"/>
<path d="M1131.5 408L1114.5 417H1041" stroke="#1F2D51" stroke-width="1.5"/>
<path d="M1071 562H1005L999 604L975.5 641.5L954 653" stroke="#1F2D51" stroke-width="1.5"/>
<path d="M947 642V620H968.5L957.5 584" stroke="#1F2D51" stroke-width="1.5"/>
<path d="M929.5 584H977.5L981 575.5H1003" stroke="#1F2D51" stroke-width="1.5"/>
<path d="M980.5 576.5L965 555L969 536.5L1025.5 511" stroke="#1F2D51" stroke-width="1.5"/>
<path d="M972.5 535.5L966 519.5H977.5L962.5 489.5" stroke="#1F2D51" stroke-width="1.5"/>
<path d="M944 584.5V596H928.5" stroke="#1F2D51" stroke-width="1.5"/>
<path d="M922 566.5L925.5 548.5H942.5L963 504.5V489.5L981 456L973.5 410" stroke="#1F2D51" stroke-width="1.5"/>
<path d="M1041 441.5L993 410H940L889 445V468.5L814.5 500.5V518" stroke="#1F2D51" stroke-width="1.5"/>
<path d="M963 490H888.5L876 551.5" stroke="#1F2D51" stroke-width="1.5"/>
<path d="M886.5 501L853 514H834V563" stroke="#1F2D51" stroke-width="1.5"/>
<path d="M856 513.5L862.5 553" stroke="#1F2D51" stroke-width="1.5"/>
<path d="M865.5 509.5L871.5 551.5" stroke="#1F2D51" stroke-width="1.5"/>
<path d="M880 503.5L856 483" stroke="#1F2D51" stroke-width="1.5"/>
<path d="M835 523.5L794.5 516" stroke="#1F2D51" stroke-width="1.5"/>
<path d="M793.5 573.5V547L765.5 516L752.5 530.5" stroke="#1F2D51" stroke-width="1.5"/>
<path d="M779 531.5L766.5 544" stroke="#1F2D51" stroke-width="1.5"/>
<path d="M788 541.5L794 536V515.5L790.5 501.5H725.5" stroke="#1F2D51" stroke-width="1.5"/>
<path d="M750.5 501.5L737.5 513.5" stroke="#1F2D51" stroke-width="1.5"/>
<path d="M774 500.5L766.5 481L729.5 454" stroke="#1F2D51" stroke-width="1.5"/>
<path d="M728.5 482.5L753 490H726" stroke="#1F2D51" stroke-width="1.5"/>
<path d="M766 481V470.5H809L805.5 397.5H828" stroke="#1F2D51" stroke-width="1.5"/>
<path d="M889 445L792.5 369.5V364.5L852.5 330.5V306.5" stroke="#1F2D51" stroke-width="1.5"/>
<path d="M792.5 366H764.5" stroke="#1F2D51" stroke-width="1.5"/>
<path d="M792.5 369.5V383H767.5V413L760.5 423H730.5" stroke="#1F2D51" stroke-width="1.5"/>
<path d="M940.5 410.5L917.5 294.5" stroke="#1F2D51" stroke-width="1.5"/>
<path d="M927.5 346.5L948 325" stroke="#1F2D51" stroke-width="1.5"/>
<path d="M1154.5 244.5L1166.5 241L1205 254.5" stroke="#1F2D51" stroke-width="1.5"/>
<path d="M1198 219.5L1185.5 203.5V175.5H1268V154L1316.5 143.5L1451 191L1444.5 211L1422 225.5L1427 253L1392 266.5L1403 293L1451 313.5" stroke="#1F2D51" stroke-width="1.5"/>
<path d="M1226 249L1242.5 243.5L1256.5 255L1268 249H1291L1350 292.5L1375.5 281.5L1381.5 295.5L1372.5 331L1346 356.5H1314.5" stroke="#1F2D51" stroke-width="1.5"/>
<path d="M1381.5 296L1403.5 293" stroke="#1F2D51" stroke-width="1.5"/>
<path d="M1353.5 290L1348 272L1372 263.5V255.5H1354.75M1255.5 254L1256 242.5L1254 227L1273.5 221L1299 240L1321.5 235L1337.5 255.5H1354.75M1354.75 255.5L1368.5 244.5L1406 243L1427 253.5" stroke="#1F2D51" stroke-width="1.5"/>
<path d="M1355 269.5L1371.5 275.5H1388.5L1394.5 272.5" stroke="#1F2D51" stroke-width="1.5"/>
<path d="M1427.5 303.5H1415.5L1400 316V324.5L1412.5 334L1415.5 349L1393.5 371H1380V383.5L1389 387V401L1372.5 406.5" stroke="#1F2D51" stroke-width="1.5"/>
<path d="M1318 393L1328 376.5L1315 356.5L1302.5 318.5L1309 304.5L1343.5 287.5" stroke="#1F2D51" stroke-width="1.5"/>
<path d="M1309 304.5L1300.5 292.5L1269 282L1249.5 288.5" stroke="#1F2D51" stroke-width="1.5"/>
<path d="M1153 255.5L1184.5 262.5L1192 250" stroke="#1F2D51" stroke-width="1.5"/>
<path d="M1185 263L1199 274" stroke="#1F2D51" stroke-width="1.5"/>
<path d="M1214.5 275H1199H1181L1174 260.5" stroke="#1F2D51" stroke-width="1.5"/>
<path d="M1181.5 275.5V286L1121 299" stroke="#1F2D51" stroke-width="1.5"/>
<path d="M1181 286L1220 350" stroke="#1F2D51" stroke-width="1.5"/>
<path d="M1165 290L1158 315L1130.5 333.5L1117 325" stroke="#1F2D51" stroke-width="1.5"/>
<path d="M1118.5 309.5L1127.5 313.5L1118.5 326" stroke="#1F2D51" stroke-width="1.5"/>
<path d="M1120 328L1121 358.5L1137 354.5L1140 335.5L1148.5 332V321.5" stroke="#1F2D51" stroke-width="1.5"/>
<path d="M1149 332L1192.5 357.5H1207L1214.5 365.5L1223 364.5" stroke="#1F2D51" stroke-width="1.5"/>
<path d="M1215 350H1201V357.5" stroke="#1F2D51" stroke-width="1.5"/>
<path d="M1238 389.5L1251 399.5L1258 413.5L1278.5 416V438L1235.5 448L1207 465L1210.5 457L1186.5 455L1181 465" stroke="#1F2D51" stroke-width="1.5"/>
<path d="M1269.5 415L1288 396.5" stroke="#1F2D51" stroke-width="1.5"/>
<path d="M1259 442V454L1270.5 466" stroke="#1F2D51" stroke-width="1.5"/>
<path d="M817.5 142.5L828.5 155.5" stroke="#1F2D51" stroke-width="1.5"/>
<path d="M940 118L947.5 108V75L997.5 39.5H1024.5V30" stroke="#1F2D51" stroke-width="1.5"/>
<path d="M1004 39.5L1013 61" stroke="#1F2D51" stroke-width="1.5"/>
<path d="M1036.5 30.5L1062 87L1046 105M1042 107.5L1048 138L1023.5 158L1018 145L1005.5 141" stroke="#1F2D51" stroke-width="1.5"/>
<path d="M1006 130.5L1041 144" stroke="#1F2D51" stroke-width="1.5"/>
<path d="M1021 122L1029 121L1038.5 127L1045 124" stroke="#1F2D51" stroke-width="1.5"/>
<path d="M1048 138.5H1065.5L1078 159.5L1071 165.5L1135 191.5L1127 208.5" stroke="#1F2D51" stroke-width="1.5"/>
<path d="M1005.5 148.5L1020 151" stroke="#1F2D51" stroke-width="1.5"/>
<path d="M1023 158L1029 176.5L1017 190.5L965.5 178.5L963.5 151" stroke="#1F2D51" stroke-width="1.5"/>
<path d="M922.5 147H934.5" stroke="#1F2D51" stroke-width="1.5"/>
<path d="M885.5 173.5L917.5 191L911.5 224.5L921.5 231.5" stroke="#1F2D51" stroke-width="1.5"/>
<path d="M909 159.5V187" stroke="#1F2D51" stroke-width="1.5"/>
<path d="M897.5 167.5L909 176" stroke="#1F2D51" stroke-width="1.5"/>
<path d="M965.5 178.5L947 183L959 200L941.5 206H915" stroke="#1F2D51" stroke-width="1.5"/>
<path d="M913 216.5H927.5L952.5 211L960 226.5" stroke="#1F2D51" stroke-width="1.5"/>
<path d="M930 206L933.5 215.5" stroke="#1F2D51" stroke-width="1.5"/>
<path d="M953 192.5H975L988 184" stroke="#1F2D51" stroke-width="1.5"/>
<path d="M975.5 192.5L984 201.5L1017.5 196.5" stroke="#1F2D51" stroke-width="1.5"/>
<path d="M1017 190.5L1018 201.5L1063 199.5L1067.5 209L1060.5 220.5L1068.5 222" stroke="#1F2D51" stroke-width="1.5"/>
<path d="M1060.5 220.5L1050 200" stroke="#1F2D51" stroke-width="1.5"/>
<path d="M1021 201.5L1008 215L989.5 218L972.5 211L984.5 201.5" stroke="#1F2D51" stroke-width="1.5"/>
<path d="M972.5 211H952.5" stroke="#1F2D51" stroke-width="1.5"/>
<path d="M976 212.5L972 221L963 226.5" stroke="#1F2D51" stroke-width="1.5"/>
<path d="M997 216.5L1000 238.5L990 246.5" stroke="#1F2D51" stroke-width="1.5"/>
<path d="M997.5 221.5L990.5 224L975 226L985.5 247" stroke="#1F2D51" stroke-width="1.5"/>
<path d="M1008 215L1030.5 258.5" stroke="#1F2D51" stroke-width="1.5"/>
<path d="M999 268L1030 258L1059 249" stroke="#1F2D51" stroke-width="1.5"/>
<path d="M1019 236L1064.5 234" stroke="#1F2D51" stroke-width="1.5"/>
<path d="M1000 238L1008.5 249L1024.5 247.5" stroke="#1F2D51" stroke-width="1.5"/>
<path d="M1008.5 249V265" stroke="#1F2D51" stroke-width="1.5"/>
<path d="M995 250L1003.5 242.5" stroke="#1F2D51" stroke-width="1.5"/>
<path d="M1049.5 252.5V262" stroke="#1F2D51" stroke-width="1.5"/>
<path d="M799.5 248.5L816.5 252L812 295" stroke="#1F2D51" stroke-width="1.5"/>
<path d="M854.5 238L878 254.5" stroke="#1F2D51" stroke-width="1.5"/>
<path d="M1027 169L1058 174.5L1084.5 171" stroke="#1F2D51" stroke-width="1.5"/>
<path d="M369.5 221.402C369.035 221.005 368.456 220.501 367.795 219.902C366.006 218.283 363.627 215.99 361.253 213.286C358.874 210.575 356.538 207.494 354.805 204.301C353.063 201.094 352 197.901 352 194.932C352 188.524 354.027 184.115 357.071 181.294C360.142 178.448 364.486 177 369.5 177C374.514 177 378.857 178.448 381.929 181.294C384.973 184.115 387 188.524 387 194.932C387 197.901 385.937 201.094 384.195 204.301C382.462 207.494 380.126 210.575 377.747 213.286C375.373 215.99 372.994 218.283 371.205 219.902C370.544 220.501 369.965 221.005 369.5 221.402Z" fill="#506187" stroke="#202B50" stroke-width="4"/>
<path d="M376.125 194.932C376.125 198.722 373.128 201.737 369.5 201.737C365.872 201.737 362.875 198.722 362.875 194.932C362.875 191.143 365.872 188.127 369.5 188.127C373.128 188.127 376.125 191.143 376.125 194.932Z" fill="#506187" stroke="#202B50" stroke-width="3"/>
<path d="M263 321.43C262.514 321.026 261.902 320.506 261.198 319.886C259.363 318.266 256.921 315.972 254.486 313.267C252.046 310.556 249.65 307.474 247.872 304.282C246.087 301.075 245 297.889 245 294.932C245 288.54 247.072 284.137 250.199 281.311C253.36 278.455 257.835 277 263 277C268.165 277 272.64 278.455 275.801 281.311C278.928 284.137 281 288.54 281 294.932C281 297.889 279.913 301.075 278.128 304.282C276.35 307.474 273.954 310.556 271.514 313.267C269.079 315.972 266.637 318.266 264.802 319.886C264.098 320.506 263.486 321.026 263 321.43Z" fill="#506187" stroke="#202B50" stroke-width="4"/>
<path d="M269.833 294.932C269.833 298.686 266.779 301.737 263 301.737C259.221 301.737 256.167 298.686 256.167 294.932C256.167 291.179 259.221 288.127 263 288.127C266.779 288.127 269.833 291.179 269.833 294.932Z" fill="#506187" stroke="#202B50" stroke-width="3"/>
<path d="M312 206.932C312 200.54 314.072 196.137 317.199 193.311C320.36 190.455 324.835 189 330 189C335.165 189 339.64 190.455 342.801 193.311C345.928 196.137 348 200.54 348 206.932C348 209.889 346.913 213.075 345.128 216.282C343.35 219.474 340.954 222.556 338.514 225.267C336.079 227.972 333.637 230.266 331.802 231.886C331.098 232.506 330.486 233.026 330 233.43C329.514 233.026 328.902 232.506 328.198 231.886C326.363 230.266 323.921 227.972 321.486 225.267C319.046 222.556 316.65 219.474 314.872 216.282C313.087 213.075 312 209.889 312 206.932Z" fill="#506187" stroke="#202B50" stroke-width="4"/>
<path d="M336.833 206.932C336.833 210.686 333.779 213.737 330 213.737C326.221 213.737 323.167 210.686 323.167 206.932C323.167 203.179 326.221 200.127 330 200.127C333.779 200.127 336.833 203.179 336.833 206.932Z" fill="#506187" stroke="#202B50" stroke-width="3"/>
<path d="M534 721.43C533.514 721.026 532.902 720.506 532.198 719.886C530.363 718.266 527.921 715.972 525.486 713.267C523.046 710.556 520.65 707.474 518.872 704.282C517.087 701.075 516 697.889 516 694.932C516 688.54 518.072 684.137 521.199 681.311C524.36 678.455 528.835 677 534 677C539.165 677 543.64 678.455 546.801 681.311C549.928 684.137 552 688.54 552 694.932C552 697.889 550.913 701.075 549.128 704.282C547.35 707.474 544.954 710.556 542.514 713.267C540.079 715.972 537.637 718.266 535.802 719.886C535.098 720.506 534.486 721.026 534 721.43Z" fill="#506187" stroke="#202B50" stroke-width="4"/>
<path d="M540.833 694.932C540.833 698.686 537.779 701.737 534 701.737C530.221 701.737 527.167 698.686 527.167 694.932C527.167 691.179 530.221 688.127 534 688.127C537.779 688.127 540.833 691.179 540.833 694.932Z" fill="#506187" stroke="#202B50" stroke-width="3"/>
<path d="M1135 652.43C1134.51 652.026 1133.9 651.506 1133.2 650.886C1131.36 649.266 1128.92 646.972 1126.49 644.267C1124.05 641.556 1121.65 638.474 1119.87 635.282C1118.09 632.075 1117 628.889 1117 625.932C1117 619.54 1119.07 615.137 1122.2 612.311C1125.36 609.455 1129.84 608 1135 608C1140.16 608 1144.64 609.455 1147.8 612.311C1150.93 615.137 1153 619.54 1153 625.932C1153 628.889 1151.91 632.075 1150.13 635.282C1148.35 638.474 1145.95 641.556 1143.51 644.267C1141.08 646.972 1138.64 649.266 1136.8 650.886C1136.1 651.506 1135.49 652.026 1135 652.43Z" fill="#506187" stroke="#202B50" stroke-width="4"/>
<path d="M1141.83 625.932C1141.83 629.686 1138.78 632.737 1135 632.737C1131.22 632.737 1128.17 629.686 1128.17 625.932C1128.17 622.179 1131.22 619.127 1135 619.127C1138.78 619.127 1141.83 622.179 1141.83 625.932Z" fill="#506187" stroke="#202B50" stroke-width="3"/>
<path d="M886 236.43C885.514 236.026 884.902 235.506 884.198 234.886C882.363 233.266 879.921 230.972 877.486 228.267C875.046 225.556 872.65 222.474 870.872 219.282C869.087 216.075 868 212.889 868 209.932C868 203.54 870.072 199.137 873.199 196.311C876.36 193.455 880.835 192 886 192C891.165 192 895.64 193.455 898.801 196.311C901.928 199.137 904 203.54 904 209.932C904 212.889 902.913 216.075 901.128 219.282C899.35 222.474 896.954 225.556 894.514 228.267C892.079 230.972 889.637 233.266 887.802 234.886C887.098 235.506 886.486 236.026 886 236.43Z" fill="#506187" stroke="#202B50" stroke-width="4"/>
<path d="M892.833 209.932C892.833 213.686 889.779 216.737 886 216.737C882.221 216.737 879.167 213.686 879.167 209.932C879.167 206.179 882.221 203.127 886 203.127C889.779 203.127 892.833 206.179 892.833 209.932Z" fill="#506187" stroke="#202B50" stroke-width="3"/>
<path d="M1261 107.43C1260.51 107.026 1259.9 106.506 1259.2 105.886C1257.36 104.266 1254.92 101.972 1252.49 99.2667C1250.05 96.5557 1247.65 93.4741 1245.87 90.2822C1244.09 87.075 1243 83.8889 1243 80.9322C1243 74.5404 1245.07 70.1367 1248.2 67.3113C1251.36 64.4552 1255.84 63 1261 63C1266.16 63 1270.64 64.4552 1273.8 67.3113C1276.93 70.1367 1279 74.5404 1279 80.9322C1279 83.8889 1277.91 87.075 1276.13 90.2822C1274.35 93.4741 1271.95 96.5557 1269.51 99.2667C1267.08 101.972 1264.64 104.266 1262.8 105.886C1262.1 106.506 1261.49 107.026 1261 107.43Z" fill="#5B6883" stroke="#202B50" stroke-width="4"/>
<path d="M1267.83 80.9323C1267.83 84.6858 1264.78 87.7374 1261 87.7374C1257.22 87.7374 1254.17 84.6858 1254.17 80.9323C1254.17 77.1787 1257.22 74.1272 1261 74.1272C1264.78 74.1272 1267.83 77.1787 1267.83 80.9323Z" fill="#5B6883" stroke="#202B50" stroke-width="3"/>
</g>
</svg>
