<svg width="561" height="900" viewBox="0 0 561 900" fill="none" xmlns="http://www.w3.org/2000/svg">
<mask id="mask0" mask-type="alpha" maskUnits="userSpaceOnUse" x="0" y="0" width="561" height="900">
<rect width="561" height="900" fill="#C4C4C4"/>
</mask>
<g mask="url(#mask0)">
<mask id="mask1" mask-type="alpha" maskUnits="userSpaceOnUse" x="-802" y="0" width="1440" height="900">
<rect x="-802" width="1440" height="900" fill="#303B74"/>
</mask>
<g mask="url(#mask1)">
<rect x="-886.449" y="-61.7915" width="1963.95" height="1271.88" fill="#6967B5"/>
<path d="M454.431 214.211L431.774 223.995L429.199 249.742L460.61 304.324H482.237L485.841 276.518L449.796 247.167V230.174L467.819 222.45L454.431 214.211Z" fill="#384668" stroke="#202B50" stroke-width="3"/>
<path d="M-50.2014 424.818L29.6129 320.802L71.3223 317.198L110.457 300.72H166.584V330.586L196.45 338.825L207.779 354.272L231.466 359.422L241.764 338.825L343.721 351.698L352.989 309.474L294.287 306.384L279.354 276.518H294.287L304.071 266.734L386.975 264.16V249.742L356.594 239.443L352.989 223.995L361.743 219.361L358.654 214.211L332.907 219.361L343.721 234.809H329.302L319.519 230.174L326.213 223.995H300.981L288.623 256.436L294.287 268.794L267.511 271.369L254.123 276.518L259.787 294.541L250.003 306.384L241.764 290.421L250.003 287.846L236.1 284.242L227.346 273.428L223.742 256.436L209.839 254.376L189.241 234.809H174.823L220.137 276.518H211.898L209.839 290.421L200.57 294.541V276.518L159.375 234.809H148.562V252.316H112.517L71.3223 306.384L30.6427 303.809L20.3441 287.846L22.9188 245.622L78.5313 243.562L76.4716 219.361L58.449 209.062V198.763L71.3223 203.398L148.562 155.509L143.413 145.211L150.622 128.218L164.525 131.822L161.435 152.42L187.182 155.509L211.898 148.815L217.563 152.42H233.525L236.1 126.158L252.063 131.822V124.099L241.764 119.464L246.914 115.345H267.511L275.235 108.651H246.914L229.406 96.8072L246.914 62.8218H233.525L206.234 96.8072L220.137 115.345L187.182 145.211L164.525 119.464L138.263 124.099L126.42 96.8072L220.137 32.9558L281.414 29.3513L350.415 50.9784L329.817 62.8218L296.347 58.1874L307.16 80.8444L397.273 44.2843L492.535 41.7097L481.207 14.4183H508.498L522.401 62.8218L535.79 46.859L518.282 23.6871L572.865 -1.54451L711.381 -46.8584L694.903 564.879L647.015 433.057H642.38V442.841H627.962L621.268 428.422L627.962 423.273L613.029 420.184L597.581 404.221H547.633L491.506 391.348L466.274 361.996L446.192 359.422L471.938 402.161L477.602 391.348L486.871 404.221L483.267 410.4L501.289 415.549L515.192 398.557L547.633 428.422L506.439 478.886L426.624 515.446L414.266 478.886L352.989 366.116L348.87 381.564L332.392 366.116L426.624 528.319L486.871 520.595L491.506 539.648L391.609 654.477L399.848 754.374L358.654 790.934V831.613L340.116 844.486V863.024L285.018 921.726H224.772L171.734 759.523L184.607 735.321V678.679L154.741 635.94V584.446H126.42L120.756 568.999L99.6434 566.424L14.6799 591.655L-54.3208 518.535L-50.2014 424.818Z" fill="#7876BF" stroke="#202B50" stroke-width="3"/>
<path d="M59.479 147.27V125.128H72.3523L88.8301 165.293L101.188 166.323V176.107H94.4943L93.4644 184.345L57.4193 192.584L52.7849 189.495L69.7776 178.681L63.0835 171.987V162.718L69.7776 158.599L67.203 147.27H59.479Z" fill="#7876BF" stroke="#202B50" stroke-width="3"/>
<path d="M55.3596 158.599V147.271H37.8519L22.9189 156.539V180.741H35.2773V174.562H51.7551V158.599H55.3596Z" fill="#7876BF" stroke="#202B50" stroke-width="3"/>
<path d="M482.237 732.232L468.334 730.172L426.11 770.851V796.083L416.326 819.255L426.11 842.427H447.737L482.237 732.232Z" fill="#7876BF" stroke="#202B50" stroke-width="3"/>
<path d="M23.4338 72.6056L10.0456 58.1875L-4.88736 64.8816H-28.0592L-31.1488 69.516H-42.4773V79.2997L-2.31271 85.9937L23.4338 72.6056Z" fill="#7876BF" stroke="#202B50" stroke-width="3"/>
<path d="M99.6436 281.152L110.972 272.398V286.302H101.188L99.6436 281.152Z" fill="#7876BF" stroke="#202B50" stroke-width="3"/>
<path d="M144.958 286.302V262.615L155.771 265.704V286.302H144.958Z" fill="#7876BF" stroke="#202B50" stroke-width="3"/>
<path d="M151.652 263.13V251.286L160.405 249.742V260.555L151.652 263.13Z" fill="#7876BF" stroke="#202B50" stroke-width="3"/>
<path d="M177.398 291.451H195.421V302.78L177.398 296.6V291.451Z" fill="#7876BF" stroke="#202B50" stroke-width="3"/>
<path d="M197.48 309.474L195.421 321.832L182.032 316.683V309.474H197.48Z" fill="#7876BF" stroke="#202B50" stroke-width="3"/>
<path d="M338.571 312.563L323.638 320.287L338.571 324.921V312.563Z" fill="#7876BF" stroke="#202B50" stroke-width="3"/>
<path d="M342.176 351.697L352.989 369.72" stroke="#36346A" stroke-width="1.5"/>
<path d="M403.967 641.603V599.379L457.005 553.55L420.96 540.162L403.967 522.139L415.811 511.841" stroke="#36346A" stroke-width="1.5"/>
<path d="M414.266 533.468L423.02 524.199" stroke="#36346A" stroke-width="1.5"/>
<path d="M410.146 516.99L396.243 495.878H363.803" stroke="#36346A" stroke-width="1.5"/>
<path d="M382.34 455.198L364.318 495.878L340.631 550.975L373.586 586.506H419.93" stroke="#36346A" stroke-width="1.5"/>
<path d="M367.922 579.812L324.668 585.476L309.735 657.566L341.145 703.395V741.5L293.257 773.94H172.763" stroke="#36346A" stroke-width="1.5"/>
<path d="M340.631 702.88H349.899V736.35L361.228 746.134V760.037L349.899 770.336V749.224L340.631 740.985" stroke="#36346A" stroke-width="1.5"/>
<path d="M350.929 722.447L395.728 712.148" stroke="#36346A" stroke-width="1.5"/>
<path d="M321.063 755.403L340.631 767.246V787.329L328.272 816.165V847.575H337.026" stroke="#36346A" stroke-width="1.5"/>
<path d="M328.272 815.649H303.556L276.264 773.94" stroke="#36346A" stroke-width="1.5"/>
<path d="M281.929 784.239H238.159V867.143H205.204" stroke="#36346A" stroke-width="1.5"/>
<path d="M238.159 836.247L251.548 851.18L304.585 815.649" stroke="#36346A" stroke-width="1.5"/>
<path d="M319.004 846.03H327.242V861.478L319.004 856.844V846.03Z" stroke="#36346A" stroke-width="1.5"/>
<path d="M297.376 870.232H307.675V880.531L302.526 886.195H290.682V876.412L297.376 870.232Z" stroke="#36346A" stroke-width="1.5"/>
<path d="M186.151 677.648H210.868L216.532 691.551H232.495L237.129 677.648H253.092V706.999L314.884 736.865L320.033 725.022L304.585 718.327L309.735 695.671L334.451 691.551" stroke="#36346A" stroke-width="1.5"/>
<path d="M267.511 714.208V736.35H250.518V756.947L267.511 774.455" stroke="#36346A" stroke-width="1.5"/>
<path d="M324.668 586.506L300.466 578.267L254.122 526.259V495.878L268.54 482.49L274.72 344.488" stroke="#36346A" stroke-width="1.5"/>
<path d="M363.288 420.183L345.78 429.452H270.085" stroke="#36346A" stroke-width="1.5"/>
<path d="M300.981 578.781H233.01L226.831 622.035L202.629 660.655L180.487 672.499" stroke="#36346A" stroke-width="1.5"/>
<path d="M173.278 661.17V638.513H195.42L184.092 601.438" stroke="#36346A" stroke-width="1.5"/>
<path d="M155.256 601.438H204.689L208.293 592.685H230.95" stroke="#36346A" stroke-width="1.5"/>
<path d="M207.779 593.715L191.816 571.573L195.935 552.52L254.123 526.259" stroke="#36346A" stroke-width="1.5"/>
<path d="M199.54 551.49L192.846 535.013H204.689L189.241 504.117" stroke="#36346A" stroke-width="1.5"/>
<path d="M170.189 601.953V613.797H154.226" stroke="#36346A" stroke-width="1.5"/>
<path d="M147.532 583.416L151.136 564.878H168.644L189.756 519.565V504.117L208.294 469.616L200.57 422.243" stroke="#36346A" stroke-width="1.5"/>
<path d="M270.085 454.683L220.652 422.243H166.069L113.546 458.288V482.49L36.8218 515.445V533.468" stroke="#36346A" stroke-width="1.5"/>
<path d="M189.756 504.632H113.031L100.158 567.968" stroke="#36346A" stroke-width="1.5"/>
<path d="M110.972 515.96L76.4714 529.348H56.9041V579.811" stroke="#36346A" stroke-width="1.5"/>
<path d="M79.561 528.833L86.2551 569.513" stroke="#36346A" stroke-width="1.5"/>
<path d="M89.3447 524.714L95.5239 567.968" stroke="#36346A" stroke-width="1.5"/>
<path d="M104.278 518.535L79.561 497.422" stroke="#36346A" stroke-width="1.5"/>
<path d="M57.9337 539.132L16.2244 531.408" stroke="#36346A" stroke-width="1.5"/>
<path d="M15.1945 590.625V563.334L-13.6416 531.408L-27.0298 546.341" stroke="#36346A" stroke-width="1.5"/>
<path d="M0.261447 547.371L-12.6118 560.244" stroke="#36346A" stroke-width="1.5"/>
<path d="M9.53038 557.67L15.7095 552.005V530.893L12.105 516.475H-54.8359" stroke="#36346A" stroke-width="1.5"/>
<path d="M-13.1265 495.363V484.549H31.1576L27.553 409.37H50.7249" stroke="#36346A" stroke-width="1.5"/>
<path d="M113.546 458.288L14.1648 380.534V375.384L75.9565 340.369V315.652" stroke="#36346A" stroke-width="1.5"/>
<path d="M14.1647 376.929H-14.6714" stroke="#36346A" stroke-width="1.5"/>
<path d="M14.1649 380.533V394.436H-11.5817V425.332L-18.7907 435.631H-49.6865" stroke="#36346A" stroke-width="1.5"/>
<path d="M166.584 422.758L142.897 303.294" stroke="#36346A" stroke-width="1.5"/>
<path d="M153.196 356.847L174.308 334.705" stroke="#36346A" stroke-width="1.5"/>
<path d="M386.974 251.801L399.333 248.196L438.982 262.099" stroke="#36346A" stroke-width="1.5"/>
<path d="M431.773 226.054L418.9 209.576V180.74H503.864V158.598L553.812 147.785L692.328 196.703L685.634 217.3L662.462 232.233L667.612 260.554L631.566 274.458L642.895 301.749L692.328 322.861" stroke="#36346A" stroke-width="1.5"/>
<path d="M460.61 256.435L477.602 250.771L492.02 262.614L503.864 256.435H527.551L588.312 301.234L614.574 289.906L620.753 304.324L611.484 340.884L584.193 367.145H551.752" stroke="#36346A" stroke-width="1.5"/>
<path d="M591.917 298.66L586.253 280.122L610.969 271.368V263.129H593.204M490.99 261.585L491.505 249.741L489.446 233.778L509.528 227.599L535.789 247.166L558.961 242.017L575.439 263.129H593.204M593.204 263.129L607.365 251.801L645.985 250.256L667.612 261.07" stroke="#36346A" stroke-width="1.5"/>
<path d="M555.357 404.735L565.655 387.743L552.267 367.145L539.394 328.011L546.088 313.593L581.618 296.085" stroke="#36346A" stroke-width="1.5"/>
<path d="M546.088 313.592L537.334 301.234L504.894 290.42L484.811 297.115" stroke="#36346A" stroke-width="1.5"/>
<path d="M385.43 263.129L417.87 270.338L425.594 257.465" stroke="#36346A" stroke-width="1.5"/>
<path d="M418.385 270.853L432.803 282.181" stroke="#36346A" stroke-width="1.5"/>
<path d="M448.766 283.211H432.803H414.266L407.057 268.278" stroke="#36346A" stroke-width="1.5"/>
<path d="M414.781 283.727V294.54L352.474 307.928" stroke="#36346A" stroke-width="1.5"/>
<path d="M414.266 294.54L454.43 360.451" stroke="#36346A" stroke-width="1.5"/>
<path d="M397.788 298.659L390.579 324.406L362.258 343.458L348.355 334.704" stroke="#36346A" stroke-width="1.5"/>
<path d="M349.899 318.742L359.168 322.861L349.899 335.734" stroke="#36346A" stroke-width="1.5"/>
<path d="M351.444 337.794L352.474 369.205L368.952 365.086L372.042 345.518L380.795 341.914V331.1" stroke="#36346A" stroke-width="1.5"/>
<path d="M381.31 341.914L426.109 368.175H441.042L448.766 376.414L457.52 375.384" stroke="#36346A" stroke-width="1.5"/>
<path d="M449.281 360.451H434.863V368.175" stroke="#36346A" stroke-width="1.5"/>
<path d="M472.968 401.13L486.356 411.429L493.565 425.847L514.677 428.422V451.079L470.393 461.377L441.042 478.885L444.647 470.646L419.93 468.586L414.266 478.885" stroke="#36346A" stroke-width="1.5"/>
<path d="M505.408 427.392L524.461 408.34" stroke="#36346A" stroke-width="1.5"/>
<path d="M494.595 455.198V467.557L506.438 479.915" stroke="#36346A" stroke-width="1.5"/>
<path d="M39.9114 146.755L51.2398 160.143" stroke="#36346A" stroke-width="1.5"/>
<path d="M166.069 121.523L173.793 111.225V77.2393L225.286 40.6792H253.093V30.8955" stroke="#36346A" stroke-width="1.5"/>
<path d="M231.98 40.6792L241.249 62.8212" stroke="#36346A" stroke-width="1.5"/>
<path d="M265.451 31.4106L291.712 89.5978L275.235 108.135M271.115 110.71L277.294 142.121L252.063 162.718L246.398 149.33L233.525 145.21" stroke="#36346A" stroke-width="1.5"/>
<path d="M234.04 134.396L270.085 148.3" stroke="#36346A" stroke-width="1.5"/>
<path d="M249.488 125.643L257.727 124.613L267.511 130.792L274.205 127.702" stroke="#36346A" stroke-width="1.5"/>
<path d="M277.294 142.635H295.317L308.19 164.262L300.981 170.442L366.892 197.218L358.653 214.726" stroke="#36346A" stroke-width="1.5"/>
<path d="M233.525 152.934L248.458 155.509" stroke="#36346A" stroke-width="1.5"/>
<path d="M251.548 162.718L257.727 181.77L245.369 196.188L192.331 183.83L190.271 155.509" stroke="#36346A" stroke-width="1.5"/>
<path d="M148.047 151.389H160.405" stroke="#36346A" stroke-width="1.5"/>
<path d="M109.942 178.681L142.897 196.703L136.718 231.204L147.017 238.413" stroke="#36346A" stroke-width="1.5"/>
<path d="M134.144 164.263V192.584" stroke="#36346A" stroke-width="1.5"/>
<path d="M122.3 172.501L134.144 181.255" stroke="#36346A" stroke-width="1.5"/>
<path d="M192.331 183.83L173.278 188.464L185.637 205.972L167.614 212.151H140.323" stroke="#36346A" stroke-width="1.5"/>
<path d="M138.263 222.965H153.196L178.942 217.3L186.666 233.263" stroke="#36346A" stroke-width="1.5"/>
<path d="M155.771 212.151L159.375 221.935" stroke="#36346A" stroke-width="1.5"/>
<path d="M179.458 198.248H202.114L215.503 189.494" stroke="#36346A" stroke-width="1.5"/>
<path d="M202.629 198.248L211.383 207.517L245.884 202.367" stroke="#36346A" stroke-width="1.5"/>
<path d="M245.369 196.188L246.398 207.516L292.742 205.457L297.377 215.24L290.167 227.084L298.406 228.629" stroke="#36346A" stroke-width="1.5"/>
<path d="M290.168 227.084L279.354 205.972" stroke="#36346A" stroke-width="1.5"/>
<path d="M249.488 207.517L236.1 221.42L217.047 224.509L199.54 217.3L211.898 207.517" stroke="#36346A" stroke-width="1.5"/>
<path d="M199.54 217.3H178.943" stroke="#36346A" stroke-width="1.5"/>
<path d="M203.144 218.845L199.025 227.599L189.756 233.263" stroke="#36346A" stroke-width="1.5"/>
<path d="M224.771 222.965L227.861 245.622L217.562 253.861" stroke="#36346A" stroke-width="1.5"/>
<path d="M225.286 228.114L218.077 230.688L202.115 232.748L212.928 254.375" stroke="#36346A" stroke-width="1.5"/>
<path d="M236.1 221.42L259.272 266.219" stroke="#36346A" stroke-width="1.5"/>
<path d="M226.831 276.002L258.757 265.704L288.623 256.435" stroke="#36346A" stroke-width="1.5"/>
<path d="M247.428 243.047L294.287 240.987" stroke="#36346A" stroke-width="1.5"/>
<path d="M227.861 245.106L236.615 256.435L253.092 254.89" stroke="#36346A" stroke-width="1.5"/>
<path d="M236.615 256.435V272.913" stroke="#36346A" stroke-width="1.5"/>
<path d="M222.712 257.465L231.465 249.741" stroke="#36346A" stroke-width="1.5"/>
<path d="M278.839 260.04V269.823" stroke="#36346A" stroke-width="1.5"/>
<path d="M21.3738 255.92L38.8814 259.524L34.247 303.808" stroke="#36346A" stroke-width="1.5"/>
<path d="M78.0161 245.106L102.218 262.099" stroke="#36346A" stroke-width="1.5"/>
<path d="M255.667 174.046L287.593 179.711L314.884 176.106" stroke="#36346A" stroke-width="1.5"/>
</g>
</g>
</svg>
